<svg width="51" height="18" viewBox="0 0 51 18" fill="none" xmlns="http://www.w3.org/2000/svg">
<path d="M40.395 17.9101L40.388 17.9071L40.366 17.8951C40.2373 17.8243 40.1096 17.7516 39.983 17.6771C38.4608 16.7726 37.0383 15.71 35.739 14.5071C33.438 12.3601 31 9.17407 31 5.25007C31 2.32207 33.464 7.09512e-05 36.438 7.09512e-05C37.2648 -0.00397847 38.0818 0.178412 38.8283 0.533676C39.5749 0.888941 40.2317 1.40794 40.75 2.05207C41.2684 1.40781 41.9254 0.888729 42.6721 0.533459C43.4189 0.178188 44.2361 -0.00412905 45.063 7.09512e-05C48.036 7.09512e-05 50.5 2.32207 50.5 5.25007C50.5 9.17507 48.062 12.3611 45.761 14.5061C44.4617 15.709 43.0392 16.7716 41.517 17.6761C41.3904 17.7509 41.2627 17.8239 41.134 17.8951L41.112 17.9071L41.105 17.9111L41.102 17.9121C40.9936 17.9695 40.8727 17.9995 40.75 17.9995C40.6273 17.9995 40.5064 17.9695 40.398 17.9121L40.395 17.9101Z" fill="#3E4D31"/>
<path fill-rule="evenodd" clip-rule="evenodd" d="M12.0808 0C11.5285 0 11.0808 0.447716 11.0808 1V16.0001C11.0808 16.5524 11.5285 17.0001 12.0808 17.0001H12.6447C13.1969 17.0001 13.6447 16.5524 13.6447 16.0001V1C13.6447 0.447715 13.1969 0 12.6447 0H12.0808ZM5.79093 4.11959C5.79093 3.5673 6.23865 3.11959 6.79093 3.11959H7.3548C7.90708 3.11959 8.3548 3.5673 8.3548 4.11959V16.0005C8.3548 16.5528 7.90708 17.0005 7.3548 17.0005H6.79093C6.23865 17.0005 5.79093 16.5528 5.79093 16.0005V4.11959ZM0 9.03064C0 8.47835 0.447715 8.03064 1 8.03064H1.56387C2.11615 8.03064 2.56386 8.47835 2.56386 9.03064V15.999C2.56386 16.5513 2.11615 16.999 1.56387 16.999H1C0.447715 16.999 0 16.5513 0 15.999V9.03064Z" fill="#3E4D31"/>
</svg>
