<svg width="73" height="12" viewBox="0 0 73 12" fill="none" xmlns="http://www.w3.org/2000/svg">
<path d="M5.50799 1.46352C5.65767 1.00287 6.30937 1.00287 6.45905 1.46353L7.21465 3.78902C7.28159 3.99503 7.47356 4.13451 7.69018 4.13451H10.1353C10.6197 4.13451 10.8211 4.75432 10.4292 5.03902L8.45106 6.47626C8.27581 6.60358 8.20248 6.82926 8.26942 7.03527L9.02502 9.36077C9.1747 9.82142 8.64746 10.2045 8.2556 9.91978L6.27741 8.48255C6.10217 8.35523 5.86487 8.35523 5.68963 8.48255L3.71144 9.91978C3.31959 10.2045 2.79235 9.82142 2.94202 9.36077L3.69762 7.03527C3.76456 6.82926 3.69123 6.60358 3.51599 6.47626L1.5378 5.03902C1.14595 4.75432 1.34733 4.13451 1.8317 4.13451H4.27687C4.49348 4.13451 4.68546 3.99503 4.75239 3.78902L5.50799 1.46352Z" fill="#FFCA0E"/>
<path d="M20.6667 1.46352C20.8164 1.00287 21.4681 1.00287 21.6177 1.46353L22.3733 3.78902C22.4403 3.99503 22.6323 4.13451 22.8489 4.13451H25.294C25.7784 4.13451 25.9798 4.75432 25.5879 5.03902L23.6097 6.47626C23.4345 6.60358 23.3612 6.82926 23.4281 7.03527L24.1837 9.36077C24.3334 9.82142 23.8061 10.2045 23.4143 9.91978L21.4361 8.48255C21.2609 8.35523 21.0236 8.35523 20.8483 8.48255L18.8701 9.91978C18.4783 10.2045 17.951 9.82142 18.1007 9.36077L18.8563 7.03527C18.9233 6.82926 18.8499 6.60358 18.6747 6.47626L16.6965 5.03902C16.3046 4.75432 16.506 4.13451 16.9904 4.13451H19.4356C19.6522 4.13451 19.8441 3.99503 19.9111 3.78902L20.6667 1.46352Z" fill="#FFCA0E"/>
<path d="M35.8234 1.46352C35.9731 1.00287 36.6248 1.00287 36.7745 1.46353L37.5301 3.78902C37.597 3.99503 37.789 4.13451 38.0056 4.13451H40.4508C40.9351 4.13451 41.1365 4.75432 40.7447 5.03902L38.7665 6.47626C38.5912 6.60358 38.5179 6.82926 38.5849 7.03527L39.3404 9.36077C39.4901 9.82142 38.9629 10.2045 38.571 9.91978L36.5928 8.48255C36.4176 8.35523 36.1803 8.35523 36.0051 8.48255L34.0269 9.91978C33.635 10.2045 33.1078 9.82142 33.2575 9.36077L34.0131 7.03527C34.08 6.82926 34.0067 6.60358 33.8314 6.47626L31.8532 5.03902C31.4614 4.75432 31.6628 4.13451 32.1471 4.13451H34.5923C34.8089 4.13451 35.0009 3.99503 35.0678 3.78902L35.8234 1.46352Z" fill="#FFCA0E"/>
<path d="M50.9821 1.46352C51.1318 1.00287 51.7835 1.00287 51.9332 1.46353L52.6888 3.78902C52.7557 3.99503 52.9477 4.13451 53.1643 4.13451H55.6095C56.0938 4.13451 56.2952 4.75432 55.9034 5.03902L53.9252 6.47626C53.7499 6.60358 53.6766 6.82926 53.7435 7.03527L54.4991 9.36077C54.6488 9.82142 54.1216 10.2045 53.7297 9.91978L51.7515 8.48255C51.5763 8.35523 51.339 8.35523 51.1638 8.48255L49.1856 9.91978C48.7937 10.2045 48.2665 9.82142 48.4161 9.36077L49.1717 7.03527C49.2387 6.82926 49.1654 6.60358 48.9901 6.47626L47.0119 5.03902C46.6201 4.75432 46.8215 4.13451 47.3058 4.13451H49.751C49.9676 4.13451 50.1596 3.99503 50.2265 3.78902L50.9821 1.46352Z" fill="#FFCA0E"/>
<path d="M66.1408 1.46352C66.2905 1.00287 66.9422 1.00287 67.0919 1.46353L67.8475 3.78902C67.9144 3.99503 68.1064 4.13451 68.323 4.13451H70.7682C71.2525 4.13451 71.4539 4.75432 71.0621 5.03902L69.0839 6.47626C68.9086 6.60358 68.8353 6.82926 68.9022 7.03527L69.6578 9.36077C69.8075 9.82142 69.2803 10.2045 68.8884 9.91978L66.9102 8.48255C66.735 8.35523 66.4977 8.35523 66.3224 8.48255L64.3443 9.91978C63.9524 10.2045 63.4252 9.82142 63.5748 9.36077L64.3304 7.03527C64.3974 6.82926 64.324 6.60358 64.1488 6.47626L62.1706 5.03902C61.7788 4.75432 61.9801 4.13451 62.4645 4.13451H64.9097C65.1263 4.13451 65.3183 3.99503 65.3852 3.78902L66.1408 1.46352Z" fill="#FFCA0E"/>
</svg>
